<svg width="182" height="48" viewBox="0 0 182 48" fill="none" xmlns="http://www.w3.org/2000/svg">
<path d="M0.403409 0.636363H5.65909L18.017 30.821H18.4432L30.8011 0.636363H36.0568V37H31.9375V9.37216H31.5824L20.2188 37H16.2415L4.87784 9.37216H4.52273V37H0.403409V0.636363ZM47.0165 47.2273C46.3063 47.2273 45.673 47.1681 45.1167 47.0497C44.5603 46.9432 44.1756 46.8366 43.9625 46.7301L45.0279 43.0369C46.0459 43.2973 46.9455 43.392 47.7267 43.321C48.508 43.25 49.2005 42.9008 49.8042 42.2734C50.4197 41.6579 50.9819 40.6577 51.4909 39.2727L52.2722 37.142L42.187 9.72727H46.7324L54.2608 31.4602H54.5449L62.0733 9.72727H66.6188L55.0421 40.9773C54.5212 42.3859 53.8761 43.5518 53.1067 44.4751C52.3373 45.4103 51.4436 46.1027 50.4256 46.5526C49.4194 47.0024 48.2831 47.2273 47.0165 47.2273ZM91.4679 15.8352L87.7037 16.9006C87.4669 16.2732 87.1177 15.6636 86.6561 15.0717C86.2063 14.468 85.5907 13.9709 84.8095 13.5803C84.0282 13.1896 83.028 12.9943 81.8088 12.9943C80.1397 12.9943 78.7489 13.379 77.6362 14.1484C76.5353 14.906 75.9849 15.8707 75.9849 17.0426C75.9849 18.0843 76.3637 18.907 77.1213 19.5107C77.8788 20.1143 79.0626 20.6174 80.6724 21.0199L84.7207 22.0142C87.1592 22.6061 88.9761 23.5116 90.1717 24.7308C91.3672 25.9382 91.965 27.4948 91.965 29.4006C91.965 30.9631 91.5152 32.3598 90.6156 33.5909C89.7278 34.822 88.4849 35.7926 86.8869 36.5028C85.2889 37.2131 83.4305 37.5682 81.3116 37.5682C78.5299 37.5682 76.2276 36.9645 74.4047 35.7571C72.5817 34.5497 71.4276 32.786 70.9423 30.4659L74.9196 29.4716C75.2984 30.9394 76.0145 32.0402 77.068 32.7741C78.1333 33.508 79.5242 33.875 81.2406 33.875C83.1937 33.875 84.7444 33.4607 85.8926 32.6321C87.0526 31.7917 87.6326 30.7855 87.6326 29.6136C87.6326 28.6667 87.3012 27.8736 86.6383 27.2344C85.9754 26.5833 84.9574 26.098 83.5843 25.7784L79.0389 24.7131C76.5413 24.1212 74.7065 23.2038 73.5346 21.9609C72.3746 20.7062 71.7946 19.1378 71.7946 17.2557C71.7946 15.7169 72.2266 14.3556 73.0907 13.1719C73.9667 11.9882 75.1563 11.0589 76.6596 10.3842C78.1748 9.70952 79.8912 9.37216 81.8088 9.37216C84.5076 9.37216 86.6265 9.96401 88.1653 11.1477C89.716 12.3314 90.8168 13.8939 91.4679 15.8352ZM102.463 20.5938V37H98.2727V0.636363H102.463V13.9886H102.818C103.457 12.58 104.416 11.4614 105.695 10.6328C106.985 9.79238 108.701 9.37216 110.844 9.37216C112.702 9.37216 114.33 9.74503 115.727 10.4908C117.123 11.2247 118.206 12.3551 118.976 13.8821C119.757 15.3973 120.148 17.3267 120.148 19.6705V37H115.957V19.9545C115.957 17.7884 115.395 16.1134 114.271 14.9297C113.158 13.7341 111.613 13.1364 109.636 13.1364C108.263 13.1364 107.032 13.4264 105.943 14.0064C104.866 14.5864 104.014 15.4328 103.386 16.5455C102.771 17.6581 102.463 19.0076 102.463 20.5938ZM138.893 37.5682C136.431 37.5682 134.271 36.9822 132.412 35.8104C130.566 34.6385 129.122 32.9991 128.08 30.892C127.05 28.785 126.535 26.3229 126.535 23.5057C126.535 20.6648 127.05 18.1849 128.08 16.0661C129.122 13.9472 130.566 12.3018 132.412 11.13C134.271 9.9581 136.431 9.37216 138.893 9.37216C141.355 9.37216 143.51 9.9581 145.356 11.13C147.215 12.3018 148.659 13.9472 149.689 16.0661C150.73 18.1849 151.251 20.6648 151.251 23.5057C151.251 26.3229 150.73 28.785 149.689 30.892C148.659 32.9991 147.215 34.6385 145.356 35.8104C143.51 36.9822 141.355 37.5682 138.893 37.5682ZM138.893 33.804C140.764 33.804 142.302 33.3246 143.51 32.3658C144.717 31.407 145.611 30.1463 146.191 28.5838C146.771 27.0213 147.061 25.3286 147.061 23.5057C147.061 21.6828 146.771 19.9841 146.191 18.4098C145.611 16.8355 144.717 15.563 143.51 14.5923C142.302 13.6217 140.764 13.1364 138.893 13.1364C137.023 13.1364 135.484 13.6217 134.277 14.5923C133.069 15.563 132.176 16.8355 131.596 18.4098C131.016 19.9841 130.726 21.6828 130.726 23.5057C130.726 25.3286 131.016 27.0213 131.596 28.5838C132.176 30.1463 133.069 31.407 134.277 32.3658C135.484 33.3246 137.023 33.804 138.893 33.804ZM157.648 47.2273V9.72727H161.696V14.0597H162.193C162.501 13.5862 162.927 12.9825 163.472 12.2486C164.028 11.5028 164.821 10.84 165.851 10.2599C166.893 9.66809 168.301 9.37216 170.077 9.37216C172.373 9.37216 174.397 9.94626 176.149 11.0945C177.901 12.2427 179.268 13.8703 180.251 15.9773C181.233 18.0843 181.724 20.5701 181.724 23.4347C181.724 26.3229 181.233 28.8265 180.251 30.9453C179.268 33.0523 177.907 34.6858 176.167 35.8459C174.427 36.9941 172.42 37.5682 170.148 37.5682C168.396 37.5682 166.993 37.2782 165.94 36.6982C164.886 36.1063 164.075 35.4375 163.507 34.6918C162.939 33.9342 162.501 33.3068 162.193 32.8097H161.838V47.2273H157.648ZM161.767 23.3636C161.767 25.4233 162.069 27.2403 162.673 28.8146C163.276 30.3771 164.158 31.6023 165.318 32.4901C166.478 33.366 167.899 33.804 169.58 33.804C171.331 33.804 172.793 33.3423 173.965 32.419C175.149 31.4839 176.037 30.2292 176.629 28.6548C177.232 27.0687 177.534 25.3049 177.534 23.3636C177.534 21.446 177.238 19.7178 176.646 18.179C176.066 16.6283 175.184 15.4032 174.001 14.5036C172.829 13.5921 171.355 13.1364 169.58 13.1364C167.875 13.1364 166.443 13.5684 165.283 14.4325C164.123 15.2848 163.247 16.4804 162.655 18.0192C162.063 19.5462 161.767 21.3277 161.767 23.3636Z" fill="white"/>
</svg>
