<svg width="77" height="67" viewBox="0 0 77 67" fill="none" xmlns="http://www.w3.org/2000/svg">
<path d="M15.0631 14.227L75.7969 14.0176L67.2547 43.3301H24.3392L13.6795 9.83014H1.50391" stroke="black" stroke-width="2" stroke-linecap="round" stroke-linejoin="round"/>
<path d="M28.6705 58.7192C31.2752 58.7192 33.3867 56.8819 33.3867 54.6155C33.3867 52.349 31.2752 50.5117 28.6705 50.5117C26.0658 50.5117 23.9542 52.349 23.9542 54.6155C23.9542 56.8819 26.0658 58.7192 28.6705 58.7192Z" stroke="black" stroke-width="2" stroke-linecap="round" stroke-linejoin="round"/>
<path d="M63.8859 58.7192C66.4906 58.7192 68.6022 56.8819 68.6022 54.6155C68.6022 52.349 66.4906 50.5117 63.8859 50.5117C61.2812 50.5117 59.1697 52.349 59.1697 54.6155C59.1697 56.8819 61.2812 58.7192 63.8859 58.7192Z" stroke="black" stroke-width="2" stroke-linecap="round" stroke-linejoin="round"/>
<path d="M21.2352 33.6047H70.1302" stroke="black" stroke-width="2" stroke-linecap="round" stroke-linejoin="round"/>
<path d="M18.0469 23.6175H73.0297" stroke="black" stroke-width="2" stroke-linecap="round" stroke-linejoin="round"/>
<path d="M29.0555 14.1747V43.3511" stroke="black" stroke-width="2" stroke-linecap="round" stroke-linejoin="round"/>
<path d="M19.0455 14.1747V26.7372" stroke="black" stroke-width="2" stroke-linecap="round" stroke-linejoin="round"/>
<path d="M38.9933 14.1747V43.3511" stroke="black" stroke-width="2" stroke-linecap="round" stroke-linejoin="round"/>
<path d="M48.9191 14.1747V43.3511" stroke="black" stroke-width="2" stroke-linecap="round" stroke-linejoin="round"/>
<path d="M58.8569 14.1747V43.3511" stroke="black" stroke-width="2" stroke-linecap="round" stroke-linejoin="round"/>
<path d="M68.7947 14.1747V38.1795" stroke="black" stroke-width="2" stroke-linecap="round" stroke-linejoin="round"/>
<path d="M24.3392 43.3511V47.8422C24.3392 48.5502 24.6625 49.2292 25.2378 49.7298C25.8132 50.2304 26.5935 50.5117 27.4072 50.5117H64.0544" stroke="black" stroke-width="2" stroke-linecap="round" stroke-linejoin="round"/>
</svg>
